<svg fill="#ffffff" xmlns="http://www.w3.org/2000/svg" xmlns:xlink="http://www.w3.org/1999/xlink" version="1.1" x="0px" y="0px" viewBox="0 0 100 100" style="enable-background:new 0 0 100 100;" xml:space="preserve">
  <g>
    <path d="M88.9612732,52.2286148h-6.2287445v-4.0681c0-0.5737648-0.4652328-1.0389328-1.0390015-1.0389328h-5.9674149v2.0779305   h4.9284744v4.0680313c0,0.5737648,0.4651718,1.0389977,1.0389404,1.0389977h7.267746   c0.5737686,0,1.0389404-0.4652328,1.0389404-1.0389977C90.0002136,52.6937828,89.5350418,52.2286148,88.9612732,52.2286148z"/>
    <path d="M88.9612732,42.1296539h-6.2287445V38.0611c0-0.573761-0.4652328-1.0389977-1.0390015-1.0389977h-5.9674149v2.0779305   h4.9284744v4.0686188c0,0.5737648,0.4651718,1.0389328,1.0389404,1.0389328h7.267746   c0.5737686,0,1.0389404-0.465168,1.0389404-1.0389328C90.0002136,42.5948906,89.5350418,42.1296539,88.9612732,42.1296539z"/>
    <path d="M88.9612732,72.4274445h-6.2287445v-4.0685577c0-0.573761-0.4652328-1.0389328-1.0390015-1.0389328h-5.9674149v2.0778656   h4.9284744v4.0686188c0,0.573761,0.4651718,1.0389328,1.0389404,1.0389328h7.267746   c0.5737686,0,1.0389404-0.4651718,1.0389404-1.0389328S89.5350418,72.4274445,88.9612732,72.4274445z"/>
    <path d="M88.9612732,62.3280258h-6.2287445v-4.0680962c0-0.5737648-0.4652328-1.0389328-1.0390015-1.0389328h-5.9674149v2.0779305   h4.9284744v4.0680962c0,0.5737648,0.4651718,1.0389366,1.0389404,1.0389366h7.267746   c0.5737686,0,1.0389404-0.4651718,1.0389404-1.0389366C90.0002136,62.7932625,89.5350418,62.3280258,88.9612732,62.3280258z"/>
    <path d="M17.2674713,48.1605148v4.0681h-6.2287436c-0.5737667,0-1.0389385,0.465168-1.0389385,1.038929   c0,0.5737648,0.4651718,1.0389977,1.0389385,1.0389977h7.2677469c0.5737648,0,1.0389366-0.4652328,1.0389366-1.0389977v-4.0680313   h4.9284763V47.121582h-5.9674129C17.732708,47.121582,17.2674713,47.58675,17.2674713,48.1605148z"/>
    <path d="M17.2674713,58.2599297v4.0680962h-6.2287436c-0.5737667,0-1.0389385,0.4652367-1.0389385,1.0389977   c0,0.5737648,0.4651718,1.0389366,1.0389385,1.0389366h7.2677469c0.5737648,0,1.0389366-0.4651718,1.0389366-1.0389366v-4.0680962   h4.9284763v-2.0779305h-5.9674129C17.732708,57.2209969,17.2674713,57.6861649,17.2674713,58.2599297z"/>
    <path d="M17.2674713,68.3588867v4.0685577h-6.2287436c-0.5737667,0-1.0389385,0.4652328-1.0389385,1.0389938   s0.4651718,1.0389328,1.0389385,1.0389328h7.2677469c0.5737648,0,1.0389366-0.4651718,1.0389366-1.0389328v-4.0686188h4.9284763   v-2.0778656h-5.9674129C17.732708,67.3199539,17.2674713,67.7851257,17.2674713,68.3588867z"/>
    <path d="M17.2674713,38.0611v4.0685539h-6.2287436c-0.5737667,0-1.0389385,0.4652367-1.0389385,1.0389977   c0,0.5737648,0.4651718,1.0389328,1.0389385,1.0389328h7.2677469c0.5737648,0,1.0389366-0.465168,1.0389366-1.0389328v-4.0686188   h4.9284763v-2.0779305h-5.9674129C17.732708,37.0221024,17.2674713,37.487339,17.2674713,38.0611z"/>
    <path d="M17.2674713,27.962141v4.0680981h-6.2287436c-0.5737667,0-1.0389385,0.4652367-1.0389385,1.0389977   c0,0.5737648,0.4651718,1.0389328,1.0389385,1.0389328h7.2677469c0.5737648,0,1.0389366-0.465168,1.0389366-1.0389328v-4.0680981   h4.9284763v-2.0779285h-5.9674129C17.732708,26.9232101,17.2674713,27.3883781,17.2674713,27.962141z"/>
    <path d="M80.6545868,33.0692368c0,0.5737648,0.4651718,1.0389328,1.0389404,1.0389328h7.267746   c0.5737686,0,1.0389404-0.465168,1.0389404-1.0389328c0-0.573761-0.4651718-1.0389977-1.0389404-1.0389977h-6.2287445V27.962141   c0-0.5737629-0.4652328-1.0389309-1.0390015-1.0389309h-5.9674149v2.0779285h4.9284744V33.0692368z"/>
    <path d="M72.609169,25.4946289H27.390831c-0.5727882,0-1.0390015,0.4662113-1.0390015,1.0389977v45.2180977   c0,0.5727844,0.4662132,1.0390015,1.0390015,1.0390015h45.218338c0.5727921,0,1.0390015-0.466217,1.0390015-1.0390015V26.5336266   C73.6481705,25.9608402,73.1819611,25.4946289,72.609169,25.4946289z M38.2938843,32.3569336h-5.6392212v5.5382805   c0,0.5737648-0.4652367,1.0389328-1.0390053,1.0389328c-0.5737648,0-1.0389366-0.465168-1.0389366-1.0389328v-6.5772133   c0-0.5737629,0.4651718-1.0389977,1.0389366-1.0389977h6.6782265c0.5737648,0,1.0389366,0.4652348,1.0389366,1.0389977   S38.8676491,32.3569336,38.2938843,32.3569336z"/>
  </g>
</svg>
