<svg fill="#ffffff" xmlns="http://www.w3.org/2000/svg" xmlns:xlink="http://www.w3.org/1999/xlink" version="1.1" x="0px" y="0px" viewBox="0 0 100 100" style="enable-background:new 0 0 100 100;" xml:space="preserve">
  <path xmlns="http://www.w3.org/2000/svg" d="M87.8082199,32.5395966H67.4373932c-1.2285309,0-2.3637466-0.6553669-2.9780502-1.7192841l-4.2329292-7.3305054  c-0.3914948-0.6781101-1.1150169-1.0957565-1.8980751-1.0957565H41.6711273c-0.7830582,0-1.5065842,0.4176464-1.8981438,1.09589  l-4.2319946,7.3298359c-0.6144333,1.0641861-1.7499886,1.71982-2.9788513,1.71982H12.191781  C10.9863281,32.5395966,10,33.5257912,10,34.7313766v40.6827927c0,1.2104034,0.9813118,2.1917801,2.191781,2.1917801h75.6164398  C89.018692,77.6059494,90,76.6245728,90,75.4141693V34.7313766C90,33.5208435,89.018692,32.5395966,87.8082199,32.5395966z   M42.9452057,26.0562935h14.1095886c0.6052017,0,1.09589,0.4901543,1.09589,1.09589s-0.4906883,1.09589-1.09589,1.09589H42.9452057  c-0.6052017,0-1.09589-0.4901543-1.09589-1.09589S42.340004,26.0562935,42.9452057,26.0562935z M50.0000687,71.8637619  c-9.2736015,0-16.7913246-7.5176544-16.7913246-16.791256S40.7264671,38.28125,50.0000687,38.28125  c9.2735291,0,16.7912521,7.5176582,16.7912521,16.791256S59.2735977,71.8637619,50.0000687,71.8637619z M84.5589447,43.1624565  c0,0.6469383-0.5245361,1.171608-1.1714783,1.171608h-8.7861862c-0.6470032,0-1.1714706-0.5246696-1.1714706-1.171608v-2.7334366  c0-0.6470757,0.5244675-1.1714745,1.1714706-1.1714745h8.7861862c0.6469421,0,1.1714783,0.5243988,1.1714783,1.1714745V43.1624565z"/>
</svg>
