<svg fill="#ffffff" xmlns="http://www.w3.org/2000/svg" xmlns:xlink="http://www.w3.org/1999/xlink" version="1.1" x="0px" y="0px" viewBox="0 0 100 100" style="enable-background:new 0 0 100 100;" xml:space="preserve">
  <g xmlns="http://www.w3.org/2000/svg">
    <path d="M39.9036179,81.0856857C40.5316505,86.1037216,44.8202972,90,50,90s9.4683495-3.8962784,10.0963821-8.9143143H39.9036179z"/>
    <path d="M76.5134964,78.5387421c2.0227585,0,3.6680756-1.6453171,3.6680756-3.6674576v-6.6857376   c0-0.98246-0.378685-1.9015045-1.0664139-2.5892258c-0.6951828-0.6951904-1.6192017-1.0782242-2.6016617-1.0782242   c-3.7619705,0-6.9015045-2.8155708-7.3019562-6.5501823L66.2187576,30.590723   c-0.5764236-5.2903881-4.4335327-9.7052612-9.5976906-10.9874401c-0.4238434-0.1049309-0.8560028-0.175972-1.2897186-0.236599   c-0.5828705-0.0806808-1.1729736-0.1327572-1.7714691-0.1327572h-7.115406c-0.5960083,0-1.1777153,0.0500546-1.7484627,0.1293373   c-0.4432755,0.0621796-0.8809547,0.1383533-1.3015327,0.248724c-5.1797028,1.2859097-9.0368118,5.6958103-9.6132317,10.978735   l-2.9797287,27.3796787c-0.2101727,1.8156929-1.0633011,3.4709625-2.4039307,4.6685753   c-1.3536873,1.2112885-3.0935192,1.8791199-4.8986435,1.8791199c-2.0295982,0-3.6805134,1.6453171-3.6805134,3.66745v6.6857376   c0,2.0221405,1.6509151,3.6674576,3.6805134,3.6674576h15.0522308h22.8976517H76.5134964z M30.5857487,69.4590225   c-0.7032719,0-1.2734737-0.5695801-1.2734737-1.2734756c0-0.7038879,0.5702019-1.273468,1.2734737-1.273468h38.8285065   c0.70327,0,1.2734756,0.5695801,1.2734756,1.273468c0,0.7038956-0.5702057,1.2734756-1.2734756,1.2734756H30.5857487z"/><path d="M44.3427429,15.6547689v1.1752272c0.0468712-0.0065289,0.0950584-0.0085506,0.142086-0.0146122   c0.0766373-0.0099487,0.1544418-0.0150795,0.2315483-0.0237846c0.5547333-0.0624924,1.1170082-0.1016655,1.687912-0.1032219   c0.0144539-0.0001545,0.0282135-0.0026417,0.0426712-0.0026417h7.118515c0.6607552,0,1.3190231,0.0494347,1.9721603,0.1340008   c0.0375404,0.0049744,0.0764809,0.0027981,0.1140251,0.0077724v-1.17274C55.6516609,12.5369978,53.1196365,10,50.0068398,10   C46.8791199,10,44.3427429,12.5369978,44.3427429,15.6547689z"/>
  </g>
</svg>
